# This file uses centimeters as units for non-parametric coordinates.

mtllib car body.mtl
g default
v -9.691837 1.482582 4.011526
v -9.691837 1.982542 10.721209
v -9.691837 1.989081 7.083639
v -9.691837 2.114935 4.927948
v -9.691837 2.213414 6.000790
v -9.691837 2.284453 5.464392
v -9.691837 2.586753 9.225005
v -9.691837 2.223577 8.170817
v -9.691837 2.704197 10.326606
v -9.691837 2.712472 9.858515
v -9.691837 2.575224 10.809327
v -9.691837 2.631368 10.686477
v -9.691837 2.405096 10.786596
v -9.691837 0.850635 7.486024
v -9.691837 0.811606 9.739922
v -9.691837 0.898693 10.820040
v -9.691837 1.291377 10.727927
v -9.691837 1.045869 10.812680
v -9.691837 0.961337 10.839348
v -9.691837 0.927452 10.837118
v -9.691837 0.827845 10.534473
v -9.691837 0.855046 10.727458
v -8.529956 0.898693 10.820040
v -8.336309 0.898693 10.820040
v -8.433132 0.898693 10.820040
v -8.481544 0.898693 10.820040
v -8.384720 0.898693 10.820040
v -8.239485 0.898693 10.820040
v -8.287897 0.898693 10.820040
v -9.691837 0.826267 8.601065
v -9.691837 0.909538 5.266681
v -9.691837 0.878994 6.378056
v -9.691837 0.942048 4.120052
v -9.691837 1.139064 3.632524
v -9.691837 0.968274 3.687934
v -9.691837 1.026147 3.587072
v -9.691837 0.990681 3.620699
v -9.691837 1.076944 3.593389
v -9.691837 1.378428 3.883654
v -8.336309 0.942048 4.120052
v -8.336309 1.139064 3.632524
v -8.336309 0.968274 3.687934
v -6.593487 1.482582 4.011526
v -6.593487 2.114935 4.927948
v -6.593487 2.213414 6.000790
v -6.593487 1.989081 7.083639
v -6.593487 2.284453 5.464392
v -6.593487 2.223577 8.170817
v -6.593487 2.586753 9.225005
v -6.593487 2.712472 9.858515
v -6.593487 2.704197 10.326606
v -6.593487 2.631368 10.686477
v -6.593487 2.575224 10.809327
v -6.593487 2.405096 10.786596
v -6.593487 1.982542 10.721209
v -6.593487 1.291377 10.727927
v -6.593487 1.045869 10.812680
v -6.593487 0.961337 10.839348
v -6.593487 0.927452 10.837118
v -6.593487 0.898693 10.820040
v -6.593487 0.827845 10.534473
v -6.593487 0.811606 9.739922
v -6.593487 0.855046 10.727458
v -6.593487 0.826267 8.601065
v -6.593487 0.850635 7.486024
v -6.593487 0.878994 6.378056
v -6.593487 0.909538 5.266681
v -6.593487 0.942048 4.120052
v -6.593487 0.968274 3.687934
v -6.593487 0.990681 3.620699
v -6.593487 1.026147 3.587072
v -6.593487 1.076944 3.593389
v -6.593487 1.139064 3.632524
v -6.593487 1.378428 3.883654
v -7.949015 0.942048 4.120052
v -7.949015 0.968274 3.687934
v -7.997427 1.139064 3.632524
vt 0.073742 0.000000
vt 0.073742 0.000000
vt 0.117363 0.000000
vt 0.117363 0.000000
vt 0.237247 0.000000
vt 0.237247 0.000000
vt 0.296687 0.000000
vt 0.296687 0.000000
vt 0.353487 0.000000
vt 0.395293 0.000000
vt 0.395293 0.000000
vt 0.353487 0.000000
vt 0.437100 0.000000
vt 0.437100 0.000000
vt 0.490225 0.000000
vt 0.490225 0.000000
vt 0.543351 0.000000
vt 0.543351 0.000000
vt 0.596476 0.000000
vt 0.596476 0.000000
vt 0.649601 0.000000
vt 0.649601 0.000000
vt 0.719240 0.000000
vt 0.719240 0.000000
vt 0.858755 0.000000
vt 0.888211 0.000000
vt 0.888211 0.000000
vt 0.858755 0.000000
vt 0.911051 0.000000
vt 0.931264 0.000000
vt 0.931264 0.000000
vt 0.911051 0.000000
vt 0.950282 0.000000
vt 0.950282 0.000000
vt 0.969305 0.000000
vt 0.969305 0.875000
vt 0.969305 0.875000
vt 0.969305 0.000000
vt 1.000000 0.000000
vt 0.976979 0.000000
vt 0.976979 0.875000
vt 0.000000 0.866224
vt 0.976979 0.000000
vt 0.978897 0.000000
vt 0.978897 0.000000
vt 0.976979 0.875000
vt 0.980816 0.000000
vt 0.982734 0.000000
vt 0.982734 0.000000
vt 0.980816 0.000000
vt 0.000000 0.875000
vt 0.984653 0.000000
vt 0.992326 0.000000
vt 0.992326 0.000000
vt 0.984653 0.000000
vt 0.984653 0.875000
vt 1.000000 0.000000
vt 0.160984 0.000000
vt 0.823817 0.000000
vt 0.754059 0.000000
vt 0.000000 0.000000
vt 0.000000 0.000000
vt 0.160984 0.000000
vt 0.823817 0.000000
vt 0.984653 0.906250
vt 1.000000 0.000000
vt 0.806347 0.000000
vt 0.806347 0.000000
vt 0.780173 0.000000
vt 0.788878 0.000000
vt 0.754059 0.000000
vt 0.771469 0.000000
vt 0.771469 0.000000
vt 0.780173 0.000000
vt 0.788878 0.000000
vt 0.788878 0.937500
vt 0.788878 0.906250
vt 0.788878 0.875000
vt 0.788878 0.843750
vt 0.788878 0.812500
vt 0.788878 0.781250
vt 0.788878 0.750000
vn 0.000000 0.875504 -0.483211
vn 0.000000 0.995814 -0.091408
vn 0.000000 0.995814 -0.091408
vn 0.000000 0.875504 -0.483211
vn 0.000000 0.999989 -0.004683
vn 0.000000 0.963187 -0.268833
vn 0.000000 0.963187 -0.268833
vn 0.000000 0.999989 -0.004683
vn 0.000000 0.960511 -0.278242
vn 0.000000 0.960511 -0.278242
vn 0.000000 0.994365 -0.106012
vn 0.000000 0.994365 -0.106012
vn -0.000000 0.995237 0.097490
vn -0.000000 0.966111 0.258125
vn -0.000000 0.966111 0.258125
vn -0.000000 0.995237 0.097490
vn -0.000000 0.404631 0.914480
vn -0.000000 -0.147061 0.989128
vn -0.000000 -0.147061 0.989128
vn -0.000000 0.404631 0.914480
vn -0.000000 -0.052605 0.998615
vn -0.000000 0.097193 0.995266
vn -0.000000 0.097193 0.995266
vn -0.000000 -0.052605 0.998615
vn -0.000000 -1.000000 0.000816
vn -0.000000 -1.000000 0.000816
vn 0.000000 -0.999850 -0.017314
vn 0.000000 -0.999850 -0.017314
vn 0.000000 -0.999719 -0.023712
vn 0.000000 -0.999719 -0.023712
vn 0.000000 -0.999648 -0.026531
vn 0.000000 -0.999648 -0.026531
vn 0.000000 -0.999610 -0.027914
vn 0.000000 -0.999309 -0.037178
vn 0.000000 -0.999309 -0.037178
vn 0.000000 -0.999309 -0.037178
vn 0.000000 -0.999309 -0.037178
vn 0.000000 -0.999610 -0.027914
vn 0.000000 -0.995291 -0.096934
vn 0.000000 -0.995291 -0.096934
vn 0.000000 -0.995291 -0.096934
vn 0.000000 -0.995291 -0.096934
vn 0.000000 -0.948700 -0.316177
vn 0.000000 -0.948700 -0.316177
vn 0.000000 -0.301820 -0.953365
vn 0.000000 -0.301820 -0.953365
vn 0.000000 0.123419 -0.992355
vn 0.000000 0.123419 -0.992355
vn 0.000000 0.693576 -0.720384
vn 0.000000 0.693576 -0.720384
vn 0.000000 0.693576 -0.720384
vn 0.000000 0.740941 -0.671570
vn 0.000000 0.740941 -0.671570
vn 0.000000 0.693576 -0.720384
vn 0.000000 -0.688045 -0.725668
vn 0.000000 -0.688045 -0.725668
vn -1.000000 0.000000 -0.000000
vn -1.000000 -0.000001 -0.000000
vn -1.000000 0.000000 -0.000000
vn -1.000000 -0.000000 -0.000000
vn -1.000000 -0.000000 -0.000000
vn -1.000000 0.000000 -0.000000
vn -1.000000 -0.000001 -0.000000
vn -1.000000 -0.000001 -0.000000
vn -1.000000 0.000000 -0.000000
vn -1.000000 -0.000001 -0.000000
vn -1.000000 -0.000000 -0.000000
vn -1.000000 -0.000000 -0.000000
vn -1.000000 0.000000 -0.000000
vn -1.000000 0.000000 -0.000000
vn -1.000000 0.000000 -0.000000
vn -1.000000 0.000000 -0.000000
vn -1.000000 0.000000 -0.000000
vn -1.000000 0.000000 -0.000000
vn -1.000000 -0.000000 -0.000000
vn -1.000000 -0.000000 -0.000000
vn -1.000000 0.000000 -0.000000
vn -1.000000 -0.000000 -0.000000
vn -1.000000 0.000000 -0.000000
vn -1.000000 0.000000 -0.000000
vn -1.000000 0.000000 -0.000000
vn -1.000000 -0.000000 -0.000000
vn -1.000000 0.000000 -0.000000
vn -1.000000 0.000000 -0.000000
vn 0.000000 0.817204 -0.576348
vn 0.000000 0.817204 -0.576348
vn -0.000000 0.983767 0.179452
vn -0.000000 0.983767 0.179452
vn -0.000000 -0.999034 0.043946
vn -0.000000 -0.999034 0.043946
vn 0.000000 0.533026 -0.846099
vn 0.000000 0.533026 -0.846099
vn 1.000000 0.000000 0.000000
vn 1.000000 0.000000 0.000000
vn 1.000000 -0.000001 0.000000
vn 1.000000 0.000000 0.000000
vn 1.000000 0.000000 0.000000
vn 1.000000 0.000000 0.000000
vn 1.000000 0.000000 0.000000
vn 1.000000 0.000000 0.000000
vn 1.000000 0.000000 0.000000
vn 1.000000 0.000000 0.000000
vn 1.000000 0.000000 0.000000
vn 1.000000 0.000000 0.000000
vn 1.000000 0.000000 0.000000
vn 1.000000 0.000000 0.000000
vn 1.000000 0.000000 0.000000
vn 1.000000 0.000000 0.000000
vn 1.000000 -0.000000 0.000000
vn 1.000000 0.000000 0.000000
vn 1.000000 -0.000000 0.000000
vn 1.000000 0.000000 0.000000
vn 1.000000 0.000000 0.000000
vn 1.000000 -0.000000 0.000000
vn 1.000000 0.000000 0.000000
vn 1.000000 0.000000 0.000000
vn 1.000000 0.000000 0.000000
vn 1.000000 0.000000 0.000000
vn 1.000000 0.000000 0.000000
vn -1.000000 0.000000 -0.000000
vn -0.000000 -0.970576 0.240796
vn -0.000000 -0.970576 0.240796
vn 1.000000 -0.000006 0.000000
vn 1.000000 0.000016 0.000000
vn 1.000000 -0.000000 0.000000
vn 1.000000 0.000000 0.000000
vn -0.000000 0.319862 0.947464
vn -0.000000 0.319862 0.947464
vn 1.000000 -0.000001 0.000000
vn -1.000000 -0.000000 -0.000000
vn -1.000000 -0.000002 -0.000000
vn -1.000000 0.000016 -0.000000
vn -0.000000 0.202114 0.979362
vn -0.000000 0.202114 0.979362
vn -0.000000 -0.510582 0.859829
vn -0.000000 -0.510582 0.859829
vn -0.000000 -0.510582 0.859829
vn -0.000000 -0.834501 0.551006
vn -0.000000 -0.834501 0.551006
vn -0.000000 -0.834501 0.551006
vn -0.000000 -0.834501 0.551006
vn -0.000000 -0.834501 0.551006
vn -0.000000 -0.834501 0.551006
vn -0.000000 -0.834501 0.551006
vn -0.000000 -0.834501 0.551006
vn -0.000000 -0.904520 0.426431
vn -0.000000 -0.065681 0.997841
vn -0.000000 -0.065681 0.997841
s 1
g polySurface133 polySurface17
usemtl initialShadingGroup
f 4/1/1 6/4/2 47/3/3 44/2/4
f 3/5/5 8/8/6 48/7/7 46/6/8
f 49/9/9 7/12/10 10/11/11 50/10/12
f 9/13/13 12/16/14 52/15/15 51/14/16
f 11/17/17 13/20/18 54/19/19 53/18/20
f 2/21/21 17/24/22 56/23/23 55/22/24
s 6
f 62/25/25 15/28/26 30/27/27 64/26/28
f 65/29/29 14/32/30 32/31/31 66/30/32
f 31/33/33 33/38/34 40/37/35 75/36/36 68/35/37 67/34/38
f 75/39/36 40/37/35 33/38/34 35/43/39 42/42/40 76/41/41 69/40/42 68/35/37
f 76/41/41 42/46/40 35/43/39 37/45/43 70/44/44 69/40/42
s 8
f 71/47/45 36/50/46 38/49/47 72/48/48
s 1
f 77/51/49 41/56/50 34/55/51 39/54/52 74/53/53 73/52/54
s 8
f 36/50/46 71/47/45 70/44/55 37/45/56
s 10
f 11/17/57 12/16/58 13/20/59
f 12/16/58 9/13/60 13/20/59
f 13/20/59 9/13/60 2/21/61
f 9/13/60 10/11/62 2/21/61
f 36/50/63 37/45/64 38/49/65
f 37/45/64 35/43/66 38/49/65
f 38/49/65 35/43/66 34/55/67
f 35/43/66 33/38/68 34/55/67
f 34/55/67 33/38/68 39/54/69
f 39/54/69 33/38/68 1/57/70
f 33/38/68 31/33/71 1/57/70
f 1/57/70 31/33/71 4/1/72
f 4/1/72 31/33/71 6/4/73
f 31/33/71 32/31/74 6/4/73
f 6/4/73 32/31/74 5/58/75
f 5/58/75 32/31/74 3/5/76
f 32/31/74 14/32/77 3/5/76
f 3/5/76 14/32/77 8/8/78
f 14/32/77 30/27/79 8/8/78
f 8/8/78 30/27/79 7/12/80
f 30/27/79 15/28/81 7/12/80
f 7/12/80 15/28/81 10/11/62
f 10/11/62 15/28/81 2/21/61
f 2/21/61 15/28/81 17/24/82
f 15/28/81 21/59/83 17/24/82
f 17/24/82 21/59/83 18/60/84
s 1
f 4/1/1 44/2/4 43/62/85 1/61/86
f 3/5/5 46/6/8 45/63/87 5/58/88
f 5/58/88 45/63/87 47/3/3 6/4/2
f 49/9/9 48/7/7 8/8/6 7/12/10
f 9/13/13 51/14/16 50/10/12 10/11/11
f 11/17/17 53/18/20 52/15/15 12/16/14
f 2/21/21 55/22/24 54/19/19 13/20/18
s 6
f 62/25/25 61/64/89 21/59/90 15/28/26
f 65/29/29 64/26/28 30/27/27 14/32/30
f 31/33/33 67/34/38 66/30/32 32/31/31
s 1
f 77/65/49 73/52/54 72/48/91 38/49/92 34/55/51 41/56/50
f 1/57/86 43/66/85 74/53/53 39/54/52
s 12
f 53/18/93 54/19/94 52/15/95
f 52/15/95 54/19/94 51/14/96
f 54/19/94 55/22/97 51/14/96
f 51/14/96 55/22/97 50/10/98
f 71/47/99 72/48/100 70/44/101
f 70/44/101 72/48/100 69/40/102
f 72/48/100 73/52/103 69/40/102
f 69/40/102 73/52/103 68/35/104
f 73/52/103 74/53/105 68/35/104
f 74/53/105 43/66/106 68/35/104
f 68/35/104 43/66/106 67/34/107
f 43/66/106 44/2/108 67/34/107
f 44/2/108 47/3/109 67/34/107
f 67/34/107 47/3/109 66/30/110
f 47/3/109 45/63/111 66/30/110
f 45/63/111 46/6/112 66/30/110
f 66/30/110 46/6/112 65/29/113
f 46/6/112 48/7/114 65/29/113
f 65/29/113 48/7/114 64/26/115
f 48/7/114 49/9/116 64/26/115
f 64/26/115 49/9/116 62/25/117
f 49/9/116 50/10/98 62/25/117
f 50/10/98 55/22/97 62/25/117
f 55/22/97 56/23/118 62/25/117
f 62/25/117 56/23/118 61/64/119
s 10
f 21/59/83 22/67/120 18/60/84
s 6
f 22/67/121 21/59/90 61/64/89 63/68/122
s 12
f 59/69/123 60/70/124 63/68/125
f 56/23/118 57/71/126 61/64/119
s 1
f 56/23/23 17/24/22 18/60/127 57/71/128
s 12
f 61/64/119 57/71/126 63/68/125
f 57/71/126 58/72/129 63/68/125
f 58/72/129 59/69/123 63/68/125
s 10
f 18/60/84 22/67/120 19/73/130
f 19/73/130 22/67/120 20/74/131
f 22/67/120 16/75/132 20/74/131
s 1
f 58/72/133 57/71/128 18/60/127 19/73/134
s 6
f 60/70/135 59/69/136 20/74/137 16/75/138 23/82/139 26/81/140 25/80/141 27/79/142 24/78/143 29/77/144 28/76/145
f 16/75/138 22/67/121 63/68/122 60/70/146 28/76/145 29/77/144 24/78/143 27/79/142 25/80/141 26/81/140 23/82/139
s 1
f 20/74/147 59/69/148 58/72/133 19/73/134
